<?xml version="1.0" encoding="UTF-8" standalone="no"?>
<!DOCTYPE svg PUBLIC "-//W3C//DTD SVG 1.1//EN"
 "http://www.w3.org/Graphics/SVG/1.1/DTD/svg11.dtd">
<!-- Generated by graphviz version 2.43.0 (0)
 -->
<!-- Title: workflow Pages: 1 -->
<svg width="2238pt" height="597pt"
 viewBox="0.00 0.00 2238.12 597.30" xmlns="http://www.w3.org/2000/svg" xmlns:xlink="http://www.w3.org/1999/xlink">
<g id="graph0" class="graph" transform="scale(1 1) rotate(0) translate(4 593.3)">
<title>workflow</title>
<polygon fill="white" stroke="transparent" points="-4,4 -4,-593.3 2234.12,-593.3 2234.12,4 -4,4"/>
<!-- place_0e7766b460fd2a39a2fd81d4a3a636b033b52be4 -->
<g id="node1" class="node">
<title>place_0e7766b460fd2a39a2fd81d4a3a636b033b52be4</title>
<ellipse fill="lightblue" stroke="#333333" cx="36" cy="-454.3" rx="36" ry="36"/>
<text text-anchor="middle" x="36" y="-452.1" font-family="Arial" font-size="9.00">draft</text>
</g>
<!-- transition_b6589fc6ab0dc82cf12099d1c2d40ab994e8410c -->
<g id="node11" class="node">
<title>transition_b6589fc6ab0dc82cf12099d1c2d40ab994e8410c</title>
<polygon fill="none" stroke="#333333" points="180,-490.3 108,-490.3 108,-418.3 180,-418.3 180,-490.3"/>
<text text-anchor="middle" x="144" y="-452.1" font-family="Arial" font-size="9.00">start_trial</text>
</g>
<!-- place_0e7766b460fd2a39a2fd81d4a3a636b033b52be4&#45;&gt;transition_b6589fc6ab0dc82cf12099d1c2d40ab994e8410c -->
<g id="edge1" class="edge">
<title>place_0e7766b460fd2a39a2fd81d4a3a636b033b52be4&#45;&gt;transition_b6589fc6ab0dc82cf12099d1c2d40ab994e8410c</title>
<path fill="none" stroke="#333333" d="M72,-454.3C81.76,-454.3 92.44,-454.3 102.49,-454.3"/>
<polygon fill="#333333" stroke="#333333" points="102.67,-456.05 107.67,-454.3 102.67,-452.55 102.67,-456.05"/>
</g>
<!-- transition_ac3478d69a3c81fa62e60f5c3696165a4e5e6ac4 -->
<g id="node16" class="node">
<title>transition_ac3478d69a3c81fa62e60f5c3696165a4e5e6ac4</title>
<polygon fill="none" stroke="#333333" points="574.89,-297.8 459.89,-297.8 459.89,-182.8 574.89,-182.8 574.89,-297.8"/>
<text text-anchor="middle" x="517.39" y="-238.1" font-family="Arial" font-size="9.00">start_yearly_registration</text>
</g>
<!-- place_0e7766b460fd2a39a2fd81d4a3a636b033b52be4&#45;&gt;transition_ac3478d69a3c81fa62e60f5c3696165a4e5e6ac4 -->
<g id="edge11" class="edge">
<title>place_0e7766b460fd2a39a2fd81d4a3a636b033b52be4&#45;&gt;transition_ac3478d69a3c81fa62e60f5c3696165a4e5e6ac4</title>
<path fill="none" stroke="#333333" d="M66.04,-434.3C78.64,-426.04 93.75,-416.69 108,-409.3 227.03,-347.53 373.88,-291.33 455.08,-261.89"/>
<polygon fill="#333333" stroke="#333333" points="455.75,-263.51 459.85,-260.16 454.56,-260.22 455.75,-263.51"/>
</g>
<!-- transition_7b52009b64fd0a2a49e6d8a939753077792b0554 -->
<g id="node23" class="node">
<title>transition_7b52009b64fd0a2a49e6d8a939753077792b0554</title>
<polygon fill="none" stroke="#333333" points="297.44,-589.3 225.44,-589.3 225.44,-517.3 297.44,-517.3 297.44,-589.3"/>
<text text-anchor="middle" x="261.44" y="-551.1" font-family="Arial" font-size="9.00">cancel</text>
</g>
<!-- place_0e7766b460fd2a39a2fd81d4a3a636b033b52be4&#45;&gt;transition_7b52009b64fd0a2a49e6d8a939753077792b0554 -->
<g id="edge25" class="edge">
<title>place_0e7766b460fd2a39a2fd81d4a3a636b033b52be4&#45;&gt;transition_7b52009b64fd0a2a49e6d8a939753077792b0554</title>
<path fill="none" stroke="#333333" d="M65.85,-474.66C78.42,-482.98 93.56,-492.27 108,-499.3 144.79,-517.19 189.08,-532.21 220.42,-541.83"/>
<polygon fill="#333333" stroke="#333333" points="220.04,-543.54 225.34,-543.32 221.06,-540.19 220.04,-543.54"/>
</g>
<!-- place_21b3b0a2d1e09a154500d665a6ffa69ba45ba979 -->
<g id="node2" class="node">
<title>place_21b3b0a2d1e09a154500d665a6ffa69ba45ba979</title>
<ellipse fill="none" stroke="#333333" cx="261.44" cy="-454.3" rx="45.39" ry="45.39"/>
<text text-anchor="middle" x="261.44" y="-452.1" font-family="Arial" font-size="9.00">trial_file_pending</text>
</g>
<!-- transition_356a192b7913b04c54574d18c28d46e6395428ab -->
<g id="node12" class="node">
<title>transition_356a192b7913b04c54574d18c28d46e6395428ab</title>
<polygon fill="none" stroke="#333333" points="423.89,-423.8 342.89,-423.8 342.89,-342.8 423.89,-342.8 423.89,-423.8"/>
<text text-anchor="middle" x="383.39" y="-381.1" font-family="Arial" font-size="9.00">submit_trial_file</text>
</g>
<!-- place_21b3b0a2d1e09a154500d665a6ffa69ba45ba979&#45;&gt;transition_356a192b7913b04c54574d18c28d46e6395428ab -->
<g id="edge3" class="edge">
<title>place_21b3b0a2d1e09a154500d665a6ffa69ba45ba979&#45;&gt;transition_356a192b7913b04c54574d18c28d46e6395428ab</title>
<path fill="none" stroke="#333333" d="M301.05,-431.44C312.89,-424.44 326,-416.68 338.17,-409.47"/>
<polygon fill="#333333" stroke="#333333" points="339.2,-410.89 342.61,-406.84 337.42,-407.88 339.2,-410.89"/>
</g>
<!-- transition_bd307a3ec329e10a2cff8fb87480823da114f8f4 -->
<g id="node24" class="node">
<title>transition_bd307a3ec329e10a2cff8fb87480823da114f8f4</title>
<polygon fill="none" stroke="#333333" points="816.39,-525.3 744.39,-525.3 744.39,-453.3 816.39,-453.3 816.39,-525.3"/>
<text text-anchor="middle" x="780.39" y="-487.1" font-family="Arial" font-size="9.00">cancel</text>
</g>
<!-- place_21b3b0a2d1e09a154500d665a6ffa69ba45ba979&#45;&gt;transition_bd307a3ec329e10a2cff8fb87480823da114f8f4 -->
<g id="edge27" class="edge">
<title>place_21b3b0a2d1e09a154500d665a6ffa69ba45ba979&#45;&gt;transition_bd307a3ec329e10a2cff8fb87480823da114f8f4</title>
<path fill="none" stroke="#333333" d="M306.65,-461.25C318.41,-463 331.12,-464.8 342.89,-466.3 499.46,-486.14 539.13,-499.07 696.89,-494.3 710.56,-493.88 725.5,-493.08 738.85,-492.24"/>
<polygon fill="#333333" stroke="#333333" points="739.21,-493.97 744.08,-491.91 738.98,-490.48 739.21,-493.97"/>
</g>
<!-- place_d5da4a762fe3f8908e39c162552020c152514e2a -->
<g id="node3" class="node">
<title>place_d5da4a762fe3f8908e39c162552020c152514e2a</title>
<ellipse fill="none" stroke="#333333" cx="517.39" cy="-379.3" rx="48.58" ry="48.58"/>
<text text-anchor="middle" x="517.39" y="-377.1" font-family="Arial" font-size="9.00">trial_file_submitted</text>
</g>
<!-- transition_da4b9237bacccdf19c0760cab7aec4a8359010b0 -->
<g id="node13" class="node">
<title>transition_da4b9237bacccdf19c0760cab7aec4a8359010b0</title>
<polygon fill="none" stroke="#333333" points="696.89,-349.3 610.89,-349.3 610.89,-263.3 696.89,-263.3 696.89,-349.3"/>
<text text-anchor="middle" x="653.89" y="-304.1" font-family="Arial" font-size="9.00">receive_trial_file</text>
</g>
<!-- place_d5da4a762fe3f8908e39c162552020c152514e2a&#45;&gt;transition_da4b9237bacccdf19c0760cab7aec4a8359010b0 -->
<g id="edge5" class="edge">
<title>place_d5da4a762fe3f8908e39c162552020c152514e2a&#45;&gt;transition_da4b9237bacccdf19c0760cab7aec4a8359010b0</title>
<path fill="none" stroke="#333333" d="M560.57,-356.4C575.1,-348.52 591.44,-339.65 606.29,-331.59"/>
<polygon fill="#333333" stroke="#333333" points="607.29,-333.04 610.85,-329.11 605.62,-329.96 607.29,-333.04"/>
</g>
<!-- transition_77de68daecd823babbb58edb1c8e14d7106e83bb -->
<g id="node14" class="node">
<title>transition_77de68daecd823babbb58edb1c8e14d7106e83bb</title>
<polygon fill="none" stroke="#333333" points="692.39,-485.8 615.39,-485.8 615.39,-408.8 692.39,-408.8 692.39,-485.8"/>
<text text-anchor="middle" x="653.89" y="-445.1" font-family="Arial" font-size="9.00">reject_trial_file</text>
</g>
<!-- place_d5da4a762fe3f8908e39c162552020c152514e2a&#45;&gt;transition_77de68daecd823babbb58edb1c8e14d7106e83bb -->
<g id="edge7" class="edge">
<title>place_d5da4a762fe3f8908e39c162552020c152514e2a&#45;&gt;transition_77de68daecd823babbb58edb1c8e14d7106e83bb</title>
<path fill="none" stroke="#333333" d="M560.94,-400.81C576.71,-408.78 594.57,-417.81 610.33,-425.78"/>
<polygon fill="#333333" stroke="#333333" points="609.9,-427.52 615.15,-428.22 611.48,-424.4 609.9,-427.52"/>
</g>
<!-- transition_fa35e192121eabf3dabf9f5ea6abdbcbc107ac3b -->
<g id="node25" class="node">
<title>transition_fa35e192121eabf3dabf9f5ea6abdbcbc107ac3b</title>
<polygon fill="none" stroke="#333333" points="957.4,-461.3 885.4,-461.3 885.4,-389.3 957.4,-389.3 957.4,-461.3"/>
<text text-anchor="middle" x="921.4" y="-423.1" font-family="Arial" font-size="9.00">cancel</text>
</g>
<!-- place_d5da4a762fe3f8908e39c162552020c152514e2a&#45;&gt;transition_fa35e192121eabf3dabf9f5ea6abdbcbc107ac3b -->
<g id="edge29" class="edge">
<title>place_d5da4a762fe3f8908e39c162552020c152514e2a&#45;&gt;transition_fa35e192121eabf3dabf9f5ea6abdbcbc107ac3b</title>
<path fill="none" stroke="#333333" d="M565.75,-384.55C601.72,-388.55 652.43,-394.22 696.89,-399.3 760.98,-406.61 835.39,-415.31 880.14,-420.56"/>
<polygon fill="#333333" stroke="#333333" points="880.01,-422.31 885.18,-421.15 880.42,-418.83 880.01,-422.31"/>
</g>
<!-- place_e1433eda136b45b266078448c4471a1d0a85d902 -->
<g id="node4" class="node">
<title>place_e1433eda136b45b266078448c4471a1d0a85d902</title>
<ellipse fill="none" stroke="#333333" cx="780.39" cy="-304.3" rx="47.52" ry="47.52"/>
<text text-anchor="middle" x="780.39" y="-302.1" font-family="Arial" font-size="9.00">TRIAL_FILE_RECEIVED</text>
</g>
<!-- transition_1b6453892473a467d07372d45eb05abc2031647a -->
<g id="node15" class="node">
<title>transition_1b6453892473a467d07372d45eb05abc2031647a</title>
<polygon fill="none" stroke="#333333" points="978.9,-370.8 863.9,-370.8 863.9,-255.8 978.9,-255.8 978.9,-370.8"/>
<text text-anchor="middle" x="921.4" y="-311.1" font-family="Arial" font-size="9.00">start_yearly_registration</text>
</g>
<!-- place_e1433eda136b45b266078448c4471a1d0a85d902&#45;&gt;transition_1b6453892473a467d07372d45eb05abc2031647a -->
<g id="edge9" class="edge">
<title>place_e1433eda136b45b266078448c4471a1d0a85d902&#45;&gt;transition_1b6453892473a467d07372d45eb05abc2031647a</title>
<path fill="none" stroke="#333333" d="M828.07,-307.32C837.83,-307.95 848.27,-308.63 858.48,-309.29"/>
<polygon fill="#333333" stroke="#333333" points="858.37,-311.03 863.47,-309.61 858.6,-307.54 858.37,-311.03"/>
</g>
<!-- place_e28147c924f33efa3fb8ca4cf1dd01ecaec146ba -->
<g id="node5" class="node">
<title>place_e28147c924f33efa3fb8ca4cf1dd01ecaec146ba</title>
<ellipse fill="none" stroke="#333333" cx="1065.51" cy="-313.3" rx="50.71" ry="50.71"/>
<text text-anchor="middle" x="1065.51" y="-311.1" font-family="Arial" font-size="9.00">yearly_file_pending</text>
</g>
<!-- transition_c1dfd96eea8cc2b62785275bca38ac261256e278 -->
<g id="node17" class="node">
<title>transition_c1dfd96eea8cc2b62785275bca38ac261256e278</title>
<polygon fill="none" stroke="#333333" points="1243.12,-285.8 1152.12,-285.8 1152.12,-194.8 1243.12,-194.8 1243.12,-285.8"/>
<text text-anchor="middle" x="1197.62" y="-238.1" font-family="Arial" font-size="9.00">submit_yearly_file</text>
</g>
<!-- place_e28147c924f33efa3fb8ca4cf1dd01ecaec146ba&#45;&gt;transition_c1dfd96eea8cc2b62785275bca38ac261256e278 -->
<g id="edge13" class="edge">
<title>place_e28147c924f33efa3fb8ca4cf1dd01ecaec146ba&#45;&gt;transition_c1dfd96eea8cc2b62785275bca38ac261256e278</title>
<path fill="none" stroke="#333333" d="M1110.2,-288.78C1122.16,-282.07 1135.21,-274.75 1147.46,-267.87"/>
<polygon fill="#333333" stroke="#333333" points="1148.43,-269.34 1151.94,-265.36 1146.72,-266.29 1148.43,-269.34"/>
</g>
<!-- transition_f1abd670358e036c31296e66b3b66c382ac00812 -->
<g id="node26" class="node">
<title>transition_f1abd670358e036c31296e66b3b66c382ac00812</title>
<polygon fill="none" stroke="#333333" points="1368.82,-418.3 1296.82,-418.3 1296.82,-346.3 1368.82,-346.3 1368.82,-418.3"/>
<text text-anchor="middle" x="1332.82" y="-380.1" font-family="Arial" font-size="9.00">cancel</text>
</g>
<!-- place_e28147c924f33efa3fb8ca4cf1dd01ecaec146ba&#45;&gt;transition_f1abd670358e036c31296e66b3b66c382ac00812 -->
<g id="edge31" class="edge">
<title>place_e28147c924f33efa3fb8ca4cf1dd01ecaec146ba&#45;&gt;transition_f1abd670358e036c31296e66b3b66c382ac00812</title>
<path fill="none" stroke="#333333" d="M1114.56,-325.79C1165.13,-338.94 1243.85,-359.42 1291.37,-371.77"/>
<polygon fill="#333333" stroke="#333333" points="1291.15,-373.53 1296.43,-373.09 1292.03,-370.14 1291.15,-373.53"/>
</g>
<!-- place_dc599f80c21c02fbe746d115a4f16a7654e515ac -->
<g id="node6" class="node">
<title>place_dc599f80c21c02fbe746d115a4f16a7654e515ac</title>
<ellipse fill="none" stroke="#333333" cx="1332.82" cy="-236.3" rx="53.91" ry="53.91"/>
<text text-anchor="middle" x="1332.82" y="-234.1" font-family="Arial" font-size="9.00">yearly_file_submitted</text>
</g>
<!-- transition_902ba3cda1883801594b6e1b452790cc53948fda -->
<g id="node18" class="node">
<title>transition_902ba3cda1883801594b6e1b452790cc53948fda</title>
<polygon fill="none" stroke="#333333" points="1518.53,-182.3 1422.53,-182.3 1422.53,-86.3 1518.53,-86.3 1518.53,-182.3"/>
<text text-anchor="middle" x="1470.53" y="-132.1" font-family="Arial" font-size="9.00">receive_yearly_file</text>
</g>
<!-- place_dc599f80c21c02fbe746d115a4f16a7654e515ac&#45;&gt;transition_902ba3cda1883801594b6e1b452790cc53948fda -->
<g id="edge15" class="edge">
<title>place_dc599f80c21c02fbe746d115a4f16a7654e515ac&#45;&gt;transition_902ba3cda1883801594b6e1b452790cc53948fda</title>
<path fill="none" stroke="#333333" d="M1376.39,-204.3C1389.63,-194.35 1404.37,-183.27 1418.15,-172.91"/>
<polygon fill="#333333" stroke="#333333" points="1419.45,-174.13 1422.4,-169.72 1417.35,-171.33 1419.45,-174.13"/>
</g>
<!-- transition_fe5dbbcea5ce7e2988b8c69bcfdfde8904aabc1f -->
<g id="node19" class="node">
<title>transition_fe5dbbcea5ce7e2988b8c69bcfdfde8904aabc1f</title>
<polygon fill="none" stroke="#333333" points="1513.53,-376.3 1427.53,-376.3 1427.53,-290.3 1513.53,-290.3 1513.53,-376.3"/>
<text text-anchor="middle" x="1470.53" y="-331.1" font-family="Arial" font-size="9.00">reject_yearly_file</text>
</g>
<!-- place_dc599f80c21c02fbe746d115a4f16a7654e515ac&#45;&gt;transition_fe5dbbcea5ce7e2988b8c69bcfdfde8904aabc1f -->
<g id="edge17" class="edge">
<title>place_dc599f80c21c02fbe746d115a4f16a7654e515ac&#45;&gt;transition_fe5dbbcea5ce7e2988b8c69bcfdfde8904aabc1f</title>
<path fill="none" stroke="#333333" d="M1377.13,-267.25C1391.74,-277.69 1408.1,-289.39 1422.95,-300"/>
<polygon fill="#333333" stroke="#333333" points="1422.01,-301.48 1427.09,-302.96 1424.04,-298.63 1422.01,-301.48"/>
</g>
<!-- transition_1574bddb75c78a6fd2251d61e2993b5146201319 -->
<g id="node27" class="node">
<title>transition_1574bddb75c78a6fd2251d61e2993b5146201319</title>
<polygon fill="none" stroke="#333333" points="1506.53,-272.3 1434.53,-272.3 1434.53,-200.3 1506.53,-200.3 1506.53,-272.3"/>
<text text-anchor="middle" x="1470.53" y="-234.1" font-family="Arial" font-size="9.00">cancel</text>
</g>
<!-- place_dc599f80c21c02fbe746d115a4f16a7654e515ac&#45;&gt;transition_1574bddb75c78a6fd2251d61e2993b5146201319 -->
<g id="edge33" class="edge">
<title>place_dc599f80c21c02fbe746d115a4f16a7654e515ac&#45;&gt;transition_1574bddb75c78a6fd2251d61e2993b5146201319</title>
<path fill="none" stroke="#333333" d="M1386.68,-236.3C1400.74,-236.3 1415.7,-236.3 1428.99,-236.3"/>
<polygon fill="#333333" stroke="#333333" points="1429.19,-238.05 1434.19,-236.3 1429.19,-234.55 1429.19,-238.05"/>
</g>
<!-- place_d623824ee38bdebb1abb86df26a06b30d9506b21 -->
<g id="node7" class="node">
<title>place_d623824ee38bdebb1abb86df26a06b30d9506b21</title>
<ellipse fill="none" stroke="#333333" cx="1606.68" cy="-134.3" rx="52.31" ry="52.31"/>
<text text-anchor="middle" x="1606.68" y="-132.1" font-family="Arial" font-size="9.00">YEARLY_FILE_RECEIVED</text>
</g>
<!-- transition_0ade7c2cf97f75d009975f4d720d1fa6c19f4897 -->
<g id="node20" class="node">
<title>transition_0ade7c2cf97f75d009975f4d720d1fa6c19f4897</title>
<polygon fill="none" stroke="#333333" points="1820.84,-152.3 1694.84,-152.3 1694.84,-26.3 1820.84,-26.3 1820.84,-152.3"/>
<text text-anchor="middle" x="1757.84" y="-87.1" font-family="Arial" font-size="9.00">send_yearly_to_federation</text>
</g>
<!-- place_d623824ee38bdebb1abb86df26a06b30d9506b21&#45;&gt;transition_0ade7c2cf97f75d009975f4d720d1fa6c19f4897 -->
<g id="edge19" class="edge">
<title>place_d623824ee38bdebb1abb86df26a06b30d9506b21&#45;&gt;transition_0ade7c2cf97f75d009975f4d720d1fa6c19f4897</title>
<path fill="none" stroke="#333333" d="M1656.94,-119.44C1667.39,-116.28 1678.59,-112.9 1689.58,-109.59"/>
<polygon fill="#333333" stroke="#333333" points="1690.32,-111.19 1694.61,-108.07 1689.31,-107.84 1690.32,-111.19"/>
</g>
<!-- transition_b1d5781111d84f7b3fe45a0852e59758cd7a87e5 -->
<g id="node21" class="node">
<title>transition_b1d5781111d84f7b3fe45a0852e59758cd7a87e5</title>
<polygon fill="none" stroke="#333333" points="1965.14,-234.3 1893.14,-234.3 1893.14,-162.3 1965.14,-162.3 1965.14,-234.3"/>
<text text-anchor="middle" x="1929.14" y="-196.1" font-family="Arial" font-size="9.00">expire</text>
</g>
<!-- place_d623824ee38bdebb1abb86df26a06b30d9506b21&#45;&gt;transition_b1d5781111d84f7b3fe45a0852e59758cd7a87e5 -->
<g id="edge21" class="edge">
<title>place_d623824ee38bdebb1abb86df26a06b30d9506b21&#45;&gt;transition_b1d5781111d84f7b3fe45a0852e59758cd7a87e5</title>
<path fill="none" stroke="#333333" d="M1656.21,-150.68C1668.7,-154.52 1682.19,-158.35 1694.84,-161.3 1761.89,-176.91 1841.33,-187.96 1888.08,-193.71"/>
<polygon fill="#333333" stroke="#333333" points="1887.88,-195.45 1893.05,-194.32 1888.3,-191.98 1887.88,-195.45"/>
</g>
<!-- place_75338cda546a09525f6d907172da02406b8c4ea0 -->
<g id="node8" class="node">
<title>place_75338cda546a09525f6d907172da02406b8c4ea0</title>
<ellipse fill="none" stroke="#333333" cx="1929.14" cy="-72.3" rx="72.09" ry="72.09"/>
<text text-anchor="middle" x="1929.14" y="-70.1" font-family="Arial" font-size="9.00">YEARLY_FILE_REGISTRED</text>
</g>
<!-- transition_17ba0791499db908433b80f37c5fbc89b870084b -->
<g id="node22" class="node">
<title>transition_17ba0791499db908433b80f37c5fbc89b870084b</title>
<polygon fill="none" stroke="#333333" points="2109.43,-139.3 2037.43,-139.3 2037.43,-67.3 2109.43,-67.3 2109.43,-139.3"/>
<text text-anchor="middle" x="2073.43" y="-101.1" font-family="Arial" font-size="9.00">expire</text>
</g>
<!-- place_75338cda546a09525f6d907172da02406b8c4ea0&#45;&gt;transition_17ba0791499db908433b80f37c5fbc89b870084b -->
<g id="edge23" class="edge">
<title>place_75338cda546a09525f6d907172da02406b8c4ea0&#45;&gt;transition_17ba0791499db908433b80f37c5fbc89b870084b</title>
<path fill="none" stroke="#333333" d="M2000.03,-87.52C2011.05,-89.92 2022.1,-92.33 2032.14,-94.52"/>
<polygon fill="#333333" stroke="#333333" points="2032.03,-96.28 2037.29,-95.64 2032.77,-92.86 2032.03,-96.28"/>
</g>
<!-- place_8761d26fb8d6c7853faf7cf13fd3e5471364dc36 -->
<g id="node9" class="node">
<title>place_8761d26fb8d6c7853faf7cf13fd3e5471364dc36</title>
<ellipse fill="none" stroke="#333333" cx="1606.68" cy="-446.3" rx="36" ry="36"/>
<text text-anchor="middle" x="1606.68" y="-444.1" font-family="Arial" font-size="9.00">cancelled</text>
</g>
<!-- place_45d10f504891eaaea42440dbc8cb1a0912e89935 -->
<g id="node10" class="node">
<title>place_45d10f504891eaaea42440dbc8cb1a0912e89935</title>
<ellipse fill="none" stroke="#333333" cx="2187.78" cy="-135.3" rx="42.19" ry="42.19"/>
<text text-anchor="middle" x="2187.78" y="-133.1" font-family="Arial" font-size="9.00">licence_expired</text>
</g>
<!-- transition_b6589fc6ab0dc82cf12099d1c2d40ab994e8410c&#45;&gt;place_21b3b0a2d1e09a154500d665a6ffa69ba45ba979 -->
<g id="edge2" class="edge">
<title>transition_b6589fc6ab0dc82cf12099d1c2d40ab994e8410c&#45;&gt;place_21b3b0a2d1e09a154500d665a6ffa69ba45ba979</title>
<path fill="none" stroke="#333333" d="M180.26,-454.3C189.75,-454.3 200.2,-454.3 210.32,-454.3"/>
<polygon fill="#333333" stroke="#333333" points="210.58,-456.05 215.58,-454.3 210.58,-452.55 210.58,-456.05"/>
</g>
<!-- transition_356a192b7913b04c54574d18c28d46e6395428ab&#45;&gt;place_d5da4a762fe3f8908e39c162552020c152514e2a -->
<g id="edge4" class="edge">
<title>transition_356a192b7913b04c54574d18c28d46e6395428ab&#45;&gt;place_d5da4a762fe3f8908e39c162552020c152514e2a</title>
<path fill="none" stroke="#333333" d="M423.99,-382.1C436.33,-381.72 450.13,-381.3 463.24,-380.91"/>
<polygon fill="#333333" stroke="#333333" points="463.47,-382.65 468.42,-380.75 463.37,-379.15 463.47,-382.65"/>
</g>
<!-- transition_da4b9237bacccdf19c0760cab7aec4a8359010b0&#45;&gt;place_e1433eda136b45b266078448c4471a1d0a85d902 -->
<g id="edge6" class="edge">
<title>transition_da4b9237bacccdf19c0760cab7aec4a8359010b0&#45;&gt;place_e1433eda136b45b266078448c4471a1d0a85d902</title>
<path fill="none" stroke="#333333" d="M697.04,-305.62C706.77,-305.46 717.24,-305.29 727.34,-305.13"/>
<polygon fill="#333333" stroke="#333333" points="727.61,-306.88 732.58,-305.05 727.55,-303.38 727.61,-306.88"/>
</g>
<!-- transition_77de68daecd823babbb58edb1c8e14d7106e83bb&#45;&gt;place_21b3b0a2d1e09a154500d665a6ffa69ba45ba979 -->
<g id="edge8" class="edge">
<title>transition_77de68daecd823babbb58edb1c8e14d7106e83bb&#45;&gt;place_21b3b0a2d1e09a154500d665a6ffa69ba45ba979</title>
<path fill="none" stroke="#333333" d="M615.28,-447.97C544.52,-449.24 391.61,-451.98 312.34,-453.4"/>
<polygon fill="#333333" stroke="#333333" points="312.2,-451.65 307.23,-453.49 312.26,-455.15 312.2,-451.65"/>
</g>
<!-- transition_1b6453892473a467d07372d45eb05abc2031647a&#45;&gt;place_e28147c924f33efa3fb8ca4cf1dd01ecaec146ba -->
<g id="edge10" class="edge">
<title>transition_1b6453892473a467d07372d45eb05abc2031647a&#45;&gt;place_e28147c924f33efa3fb8ca4cf1dd01ecaec146ba</title>
<path fill="none" stroke="#333333" d="M978.98,-313.3C988.99,-313.3 999.41,-313.3 1009.39,-313.3"/>
<polygon fill="#333333" stroke="#333333" points="1009.56,-315.05 1014.56,-313.3 1009.56,-311.55 1009.56,-315.05"/>
</g>
<!-- transition_ac3478d69a3c81fa62e60f5c3696165a4e5e6ac4&#45;&gt;place_e28147c924f33efa3fb8ca4cf1dd01ecaec146ba -->
<g id="edge12" class="edge">
<title>transition_ac3478d69a3c81fa62e60f5c3696165a4e5e6ac4&#45;&gt;place_e28147c924f33efa3fb8ca4cf1dd01ecaec146ba</title>
<path fill="none" stroke="#333333" d="M574.97,-229.74C663.9,-215.61 840.51,-197.57 978.9,-246.3 995.68,-252.2 1011.71,-262.84 1025.26,-273.93"/>
<polygon fill="#333333" stroke="#333333" points="1024.43,-275.51 1029.39,-277.38 1026.68,-272.83 1024.43,-275.51"/>
</g>
<!-- transition_c1dfd96eea8cc2b62785275bca38ac261256e278&#45;&gt;place_dc599f80c21c02fbe746d115a4f16a7654e515ac -->
<g id="edge14" class="edge">
<title>transition_c1dfd96eea8cc2b62785275bca38ac261256e278&#45;&gt;place_dc599f80c21c02fbe746d115a4f16a7654e515ac</title>
<path fill="none" stroke="#333333" d="M1243.34,-238.95C1253,-238.66 1263.34,-238.35 1273.43,-238.05"/>
<polygon fill="#333333" stroke="#333333" points="1273.73,-239.79 1278.68,-237.89 1273.63,-236.29 1273.73,-239.79"/>
</g>
<!-- transition_902ba3cda1883801594b6e1b452790cc53948fda&#45;&gt;place_d623824ee38bdebb1abb86df26a06b30d9506b21 -->
<g id="edge16" class="edge">
<title>transition_902ba3cda1883801594b6e1b452790cc53948fda&#45;&gt;place_d623824ee38bdebb1abb86df26a06b30d9506b21</title>
<path fill="none" stroke="#333333" d="M1518.83,-134.3C1528.59,-134.3 1538.97,-134.3 1549.03,-134.3"/>
<polygon fill="#333333" stroke="#333333" points="1549.25,-136.05 1554.25,-134.3 1549.25,-132.55 1549.25,-136.05"/>
</g>
<!-- transition_fe5dbbcea5ce7e2988b8c69bcfdfde8904aabc1f&#45;&gt;place_e28147c924f33efa3fb8ca4cf1dd01ecaec146ba -->
<g id="edge18" class="edge">
<title>transition_fe5dbbcea5ce7e2988b8c69bcfdfde8904aabc1f&#45;&gt;place_e28147c924f33efa3fb8ca4cf1dd01ecaec146ba</title>
<path fill="none" stroke="#333333" d="M1427.46,-331.21C1354.17,-327.57 1203.14,-320.08 1121.6,-316.03"/>
<polygon fill="#333333" stroke="#333333" points="1121.41,-314.27 1116.33,-315.77 1121.24,-317.76 1121.41,-314.27"/>
</g>
<!-- transition_0ade7c2cf97f75d009975f4d720d1fa6c19f4897&#45;&gt;place_75338cda546a09525f6d907172da02406b8c4ea0 -->
<g id="edge20" class="edge">
<title>transition_0ade7c2cf97f75d009975f4d720d1fa6c19f4897&#45;&gt;place_75338cda546a09525f6d907172da02406b8c4ea0</title>
<path fill="none" stroke="#333333" d="M1820.92,-83.06C1831.06,-82.04 1841.66,-80.98 1852.09,-79.93"/>
<polygon fill="#333333" stroke="#333333" points="1852.39,-81.66 1857.19,-79.42 1852.04,-78.18 1852.39,-81.66"/>
</g>
<!-- transition_b1d5781111d84f7b3fe45a0852e59758cd7a87e5&#45;&gt;place_45d10f504891eaaea42440dbc8cb1a0912e89935 -->
<g id="edge22" class="edge">
<title>transition_b1d5781111d84f7b3fe45a0852e59758cd7a87e5&#45;&gt;place_45d10f504891eaaea42440dbc8cb1a0912e89935</title>
<path fill="none" stroke="#333333" d="M1965.28,-189.67C2011.07,-178.43 2091.2,-158.76 2141.5,-146.41"/>
<polygon fill="#333333" stroke="#333333" points="2142.13,-148.06 2146.57,-145.17 2141.3,-144.66 2142.13,-148.06"/>
</g>
<!-- transition_17ba0791499db908433b80f37c5fbc89b870084b&#45;&gt;place_45d10f504891eaaea42440dbc8cb1a0912e89935 -->
<g id="edge24" class="edge">
<title>transition_17ba0791499db908433b80f37c5fbc89b870084b&#45;&gt;place_45d10f504891eaaea42440dbc8cb1a0912e89935</title>
<path fill="none" stroke="#333333" d="M2109.67,-113.33C2119.94,-116.26 2131.29,-119.49 2142.06,-122.56"/>
<polygon fill="#333333" stroke="#333333" points="2141.68,-124.27 2146.97,-123.96 2142.64,-120.9 2141.68,-124.27"/>
</g>
<!-- transition_7b52009b64fd0a2a49e6d8a939753077792b0554&#45;&gt;place_8761d26fb8d6c7853faf7cf13fd3e5471364dc36 -->
<g id="edge26" class="edge">
<title>transition_7b52009b64fd0a2a49e6d8a939753077792b0554&#45;&gt;place_8761d26fb8d6c7853faf7cf13fd3e5471364dc36</title>
<path fill="none" stroke="#333333" d="M297.77,-553.3C346.83,-553.3 438.35,-553.3 516.39,-553.3 516.39,-553.3 516.39,-553.3 1333.82,-553.3 1425.16,-553.3 1522.51,-500.36 1572.22,-468.95"/>
<polygon fill="#333333" stroke="#333333" points="1573.32,-470.33 1576.59,-466.17 1571.44,-467.38 1573.32,-470.33"/>
</g>
<!-- transition_bd307a3ec329e10a2cff8fb87480823da114f8f4&#45;&gt;place_8761d26fb8d6c7853faf7cf13fd3e5471364dc36 -->
<g id="edge28" class="edge">
<title>transition_bd307a3ec329e10a2cff8fb87480823da114f8f4&#45;&gt;place_8761d26fb8d6c7853faf7cf13fd3e5471364dc36</title>
<path fill="none" stroke="#333333" d="M816.7,-489.3C870.28,-489.3 975.3,-489.3 1064.51,-489.3 1064.51,-489.3 1064.51,-489.3 1333.82,-489.3 1417.61,-489.3 1514.16,-469.12 1566.68,-456.41"/>
<polygon fill="#333333" stroke="#333333" points="1567.18,-458.09 1571.62,-455.21 1566.35,-454.69 1567.18,-458.09"/>
</g>
<!-- transition_fa35e192121eabf3dabf9f5ea6abdbcbc107ac3b&#45;&gt;place_8761d26fb8d6c7853faf7cf13fd3e5471364dc36 -->
<g id="edge30" class="edge">
<title>transition_fa35e192121eabf3dabf9f5ea6abdbcbc107ac3b&#45;&gt;place_8761d26fb8d6c7853faf7cf13fd3e5471364dc36</title>
<path fill="none" stroke="#333333" d="M957.83,-429.75C1010.02,-435.91 1110.67,-446.3 1196.62,-446.3 1196.62,-446.3 1196.62,-446.3 1333.82,-446.3 1415.96,-446.3 1512.05,-446.3 1565.17,-446.3"/>
<polygon fill="#333333" stroke="#333333" points="1565.49,-448.05 1570.49,-446.3 1565.49,-444.55 1565.49,-448.05"/>
</g>
<!-- transition_f1abd670358e036c31296e66b3b66c382ac00812&#45;&gt;place_8761d26fb8d6c7853faf7cf13fd3e5471364dc36 -->
<g id="edge32" class="edge">
<title>transition_f1abd670358e036c31296e66b3b66c382ac00812&#45;&gt;place_8761d26fb8d6c7853faf7cf13fd3e5471364dc36</title>
<path fill="none" stroke="#333333" d="M1369.08,-390.6C1419.89,-402.56 1513.36,-424.56 1566.34,-437.03"/>
<polygon fill="#333333" stroke="#333333" points="1566.07,-438.77 1571.34,-438.21 1566.88,-435.36 1566.07,-438.77"/>
</g>
<!-- transition_1574bddb75c78a6fd2251d61e2993b5146201319&#45;&gt;place_8761d26fb8d6c7853faf7cf13fd3e5471364dc36 -->
<g id="edge34" class="edge">
<title>transition_1574bddb75c78a6fd2251d61e2993b5146201319&#45;&gt;place_8761d26fb8d6c7853faf7cf13fd3e5471364dc36</title>
<path fill="none" stroke="#333333" d="M1506.76,-267.55C1510.95,-271.97 1514.99,-276.61 1518.53,-281.3 1548.88,-321.51 1574.52,-373.76 1589.97,-408.58"/>
<polygon fill="#333333" stroke="#333333" points="1588.37,-409.29 1591.99,-413.16 1591.57,-407.88 1588.37,-409.29"/>
</g>
</g>
</svg>
