<?xml version="1.0" encoding="UTF-8" standalone="no"?>
<!DOCTYPE svg PUBLIC "-//W3C//DTD SVG 1.1//EN"
 "http://www.w3.org/Graphics/SVG/1.1/DTD/svg11.dtd">
<!-- Generated by graphviz version 2.43.0 (0)
 -->
<!-- Title: workflow Pages: 1 -->
<svg width="2441pt" height="363pt"
 viewBox="0.00 0.00 2441.23 363.00" xmlns="http://www.w3.org/2000/svg" xmlns:xlink="http://www.w3.org/1999/xlink">
<g id="graph0" class="graph" transform="scale(1 1) rotate(0) translate(4 359)">
<title>workflow</title>
<polygon fill="white" stroke="transparent" points="-4,4 -4,-359 2437.23,-359 2437.23,4 -4,4"/>
<!-- place_0e7766b460fd2a39a2fd81d4a3a636b033b52be4 -->
<g id="node1" class="node">
<title>place_0e7766b460fd2a39a2fd81d4a3a636b033b52be4</title>
<ellipse fill="lightblue" stroke="#333333" cx="36" cy="-117.5" rx="36" ry="36"/>
<text text-anchor="middle" x="36" y="-115.3" font-family="Arial" font-size="9.00">draft</text>
</g>
<!-- transition_b6589fc6ab0dc82cf12099d1c2d40ab994e8410c -->
<g id="node12" class="node">
<title>transition_b6589fc6ab0dc82cf12099d1c2d40ab994e8410c</title>
<polygon fill="none" stroke="#333333" points="180,-199.5 108,-199.5 108,-127.5 180,-127.5 180,-199.5"/>
<text text-anchor="middle" x="144" y="-161.3" font-family="Arial" font-size="9.00">start_trial</text>
</g>
<!-- place_0e7766b460fd2a39a2fd81d4a3a636b033b52be4&#45;&gt;transition_b6589fc6ab0dc82cf12099d1c2d40ab994e8410c -->
<g id="edge1" class="edge">
<title>place_0e7766b460fd2a39a2fd81d4a3a636b033b52be4&#45;&gt;transition_b6589fc6ab0dc82cf12099d1c2d40ab994e8410c</title>
<path fill="none" stroke="#333333" d="M69.38,-131.55C80.03,-136.18 92.01,-141.37 103.15,-146.21"/>
<polygon fill="#333333" stroke="#333333" points="102.59,-147.87 107.87,-148.25 103.98,-144.66 102.59,-147.87"/>
</g>
<!-- transition_0ade7c2cf97f75d009975f4d720d1fa6c19f4897 -->
<g id="node21" class="node">
<title>transition_0ade7c2cf97f75d009975f4d720d1fa6c19f4897</title>
<polygon fill="none" stroke="#333333" points="331,-115 216,-115 216,0 331,0 331,-115"/>
<text text-anchor="middle" x="273.5" y="-55.3" font-family="Arial" font-size="9.00">start_yearly_registration</text>
</g>
<!-- place_0e7766b460fd2a39a2fd81d4a3a636b033b52be4&#45;&gt;transition_0ade7c2cf97f75d009975f4d720d1fa6c19f4897 -->
<g id="edge19" class="edge">
<title>place_0e7766b460fd2a39a2fd81d4a3a636b033b52be4&#45;&gt;transition_0ade7c2cf97f75d009975f4d720d1fa6c19f4897</title>
<path fill="none" stroke="#333333" d="M70.99,-108.84C107.42,-99.56 166.02,-84.63 210.66,-73.26"/>
<polygon fill="#333333" stroke="#333333" points="211.34,-74.89 215.76,-71.96 210.48,-71.5 211.34,-74.89"/>
</g>
<!-- place_21b3b0a2d1e09a154500d665a6ffa69ba45ba979 -->
<g id="node2" class="node">
<title>place_21b3b0a2d1e09a154500d665a6ffa69ba45ba979</title>
<ellipse fill="none" stroke="#333333" cx="273.5" cy="-233.5" rx="45.39" ry="45.39"/>
<text text-anchor="middle" x="273.5" y="-231.3" font-family="Arial" font-size="9.00">trial_file_pending</text>
</g>
<!-- transition_356a192b7913b04c54574d18c28d46e6395428ab -->
<g id="node13" class="node">
<title>transition_356a192b7913b04c54574d18c28d46e6395428ab</title>
<polygon fill="none" stroke="#333333" points="448,-274 367,-274 367,-193 448,-193 448,-274"/>
<text text-anchor="middle" x="407.5" y="-231.3" font-family="Arial" font-size="9.00">submit_trial_file</text>
</g>
<!-- place_21b3b0a2d1e09a154500d665a6ffa69ba45ba979&#45;&gt;transition_356a192b7913b04c54574d18c28d46e6395428ab -->
<g id="edge3" class="edge">
<title>place_21b3b0a2d1e09a154500d665a6ffa69ba45ba979&#45;&gt;transition_356a192b7913b04c54574d18c28d46e6395428ab</title>
<path fill="none" stroke="#333333" d="M319.19,-233.5C332.79,-233.5 347.75,-233.5 361.38,-233.5"/>
<polygon fill="#333333" stroke="#333333" points="361.73,-235.25 366.73,-233.5 361.73,-231.75 361.73,-235.25"/>
</g>
<!-- place_d5da4a762fe3f8908e39c162552020c152514e2a -->
<g id="node3" class="node">
<title>place_d5da4a762fe3f8908e39c162552020c152514e2a</title>
<ellipse fill="none" stroke="#333333" cx="532.54" cy="-233.5" rx="48.58" ry="48.58"/>
<text text-anchor="middle" x="532.54" y="-231.3" font-family="Arial" font-size="9.00">trial_file_submitted</text>
</g>
<!-- transition_da4b9237bacccdf19c0760cab7aec4a8359010b0 -->
<g id="node14" class="node">
<title>transition_da4b9237bacccdf19c0760cab7aec4a8359010b0</title>
<polygon fill="none" stroke="#333333" points="701.08,-215.5 617.08,-215.5 617.08,-131.5 701.08,-131.5 701.08,-215.5"/>
<text text-anchor="middle" x="659.08" y="-171.3" font-family="Arial" font-size="9.00">receive_trial_file</text>
</g>
<!-- place_d5da4a762fe3f8908e39c162552020c152514e2a&#45;&gt;transition_da4b9237bacccdf19c0760cab7aec4a8359010b0 -->
<g id="edge5" class="edge">
<title>place_d5da4a762fe3f8908e39c162552020c152514e2a&#45;&gt;transition_da4b9237bacccdf19c0760cab7aec4a8359010b0</title>
<path fill="none" stroke="#333333" d="M576.75,-212.68C588.29,-207.13 600.79,-201.1 612.45,-195.48"/>
<polygon fill="#333333" stroke="#333333" points="613.3,-197.02 617.05,-193.27 611.78,-193.86 613.3,-197.02"/>
</g>
<!-- transition_77de68daecd823babbb58edb1c8e14d7106e83bb -->
<g id="node15" class="node">
<title>transition_77de68daecd823babbb58edb1c8e14d7106e83bb</title>
<polygon fill="none" stroke="#333333" points="697.58,-349 620.58,-349 620.58,-272 697.58,-272 697.58,-349"/>
<text text-anchor="middle" x="659.08" y="-308.3" font-family="Arial" font-size="9.00">reject_trial_file</text>
</g>
<!-- place_d5da4a762fe3f8908e39c162552020c152514e2a&#45;&gt;transition_77de68daecd823babbb58edb1c8e14d7106e83bb -->
<g id="edge7" class="edge">
<title>place_d5da4a762fe3f8908e39c162552020c152514e2a&#45;&gt;transition_77de68daecd823babbb58edb1c8e14d7106e83bb</title>
<path fill="none" stroke="#333333" d="M574.32,-258.71C587.58,-266.91 602.32,-276.02 615.69,-284.29"/>
<polygon fill="#333333" stroke="#333333" points="614.99,-285.92 620.17,-287.06 616.83,-282.94 614.99,-285.92"/>
</g>
<!-- transition_1b6453892473a467d07372d45eb05abc2031647a -->
<g id="node16" class="node">
<title>transition_1b6453892473a467d07372d45eb05abc2031647a</title>
<polygon fill="none" stroke="#333333" points="829.08,-348.5 737.08,-348.5 737.08,-256.5 829.08,-256.5 829.08,-348.5"/>
<text text-anchor="middle" x="783.08" y="-300.3" font-family="Arial" font-size="9.00">complete_trial_file</text>
</g>
<!-- place_d5da4a762fe3f8908e39c162552020c152514e2a&#45;&gt;transition_1b6453892473a467d07372d45eb05abc2031647a -->
<g id="edge9" class="edge">
<title>place_d5da4a762fe3f8908e39c162552020c152514e2a&#45;&gt;transition_1b6453892473a467d07372d45eb05abc2031647a</title>
<path fill="none" stroke="#333333" d="M581,-238.03C615.03,-242.17 661.65,-249.65 701.08,-262.5 711.43,-265.87 722.11,-270.35 732.2,-275.1"/>
<polygon fill="#333333" stroke="#333333" points="731.52,-276.71 736.78,-277.29 733.03,-273.55 731.52,-276.71"/>
</g>
<!-- place_124f70d67f4f800fdeea7011f8de04c51e8ff839 -->
<g id="node4" class="node">
<title>place_124f70d67f4f800fdeea7011f8de04c51e8ff839</title>
<ellipse fill="none" stroke="#333333" cx="783.08" cy="-173.5" rx="45.92" ry="45.92"/>
<text text-anchor="middle" x="783.08" y="-171.3" font-family="Arial" font-size="9.00">trial_file_received</text>
</g>
<!-- transition_ac3478d69a3c81fa62e60f5c3696165a4e5e6ac4 -->
<g id="node17" class="node">
<title>transition_ac3478d69a3c81fa62e60f5c3696165a4e5e6ac4</title>
<polygon fill="none" stroke="#333333" points="957.08,-293.5 865.08,-293.5 865.08,-201.5 957.08,-201.5 957.08,-293.5"/>
<text text-anchor="middle" x="911.08" y="-245.3" font-family="Arial" font-size="9.00">complete_trial_file</text>
</g>
<!-- place_124f70d67f4f800fdeea7011f8de04c51e8ff839&#45;&gt;transition_ac3478d69a3c81fa62e60f5c3696165a4e5e6ac4 -->
<g id="edge11" class="edge">
<title>place_124f70d67f4f800fdeea7011f8de04c51e8ff839&#45;&gt;transition_ac3478d69a3c81fa62e60f5c3696165a4e5e6ac4</title>
<path fill="none" stroke="#333333" d="M823.26,-196.51C834.97,-203.39 847.97,-211.02 860.26,-218.24"/>
<polygon fill="#333333" stroke="#333333" points="859.56,-219.86 864.76,-220.88 861.33,-216.84 859.56,-219.86"/>
</g>
<!-- transition_902ba3cda1883801594b6e1b452790cc53948fda -->
<g id="node19" class="node">
<title>transition_902ba3cda1883801594b6e1b452790cc53948fda</title>
<polygon fill="none" stroke="#333333" points="1108.08,-145 993.08,-145 993.08,-30 1108.08,-30 1108.08,-145"/>
<text text-anchor="middle" x="1050.58" y="-85.3" font-family="Arial" font-size="9.00">start_yearly_registration</text>
</g>
<!-- place_124f70d67f4f800fdeea7011f8de04c51e8ff839&#45;&gt;transition_902ba3cda1883801594b6e1b452790cc53948fda -->
<g id="edge15" class="edge">
<title>place_124f70d67f4f800fdeea7011f8de04c51e8ff839&#45;&gt;transition_902ba3cda1883801594b6e1b452790cc53948fda</title>
<path fill="none" stroke="#333333" d="M827.04,-159.59C870.6,-145.48 938.44,-123.5 987.77,-107.52"/>
<polygon fill="#333333" stroke="#333333" points="988.57,-109.1 992.79,-105.9 987.49,-105.77 988.57,-109.1"/>
</g>
<!-- place_514fecd50d398278ac3a7a29c818becb81d21d24 -->
<g id="node5" class="node">
<title>place_514fecd50d398278ac3a7a29c818becb81d21d24</title>
<ellipse fill="none" stroke="#333333" cx="1050.58" cy="-272.5" rx="41.12" ry="41.12"/>
<text text-anchor="middle" x="1050.58" y="-270.3" font-family="Arial" font-size="9.00">trial_completed</text>
</g>
<!-- transition_c1dfd96eea8cc2b62785275bca38ac261256e278 -->
<g id="node18" class="node">
<title>transition_c1dfd96eea8cc2b62785275bca38ac261256e278</title>
<polygon fill="none" stroke="#333333" points="1252.58,-221.5 1150.58,-221.5 1150.58,-119.5 1252.58,-119.5 1252.58,-221.5"/>
<text text-anchor="middle" x="1201.58" y="-168.3" font-family="Arial" font-size="9.00">uncomplete_trial_file</text>
</g>
<!-- place_514fecd50d398278ac3a7a29c818becb81d21d24&#45;&gt;transition_c1dfd96eea8cc2b62785275bca38ac261256e278 -->
<g id="edge13" class="edge">
<title>place_514fecd50d398278ac3a7a29c818becb81d21d24&#45;&gt;transition_c1dfd96eea8cc2b62785275bca38ac261256e278</title>
<path fill="none" stroke="#333333" d="M1085.02,-249.61C1103.04,-237.27 1125.73,-221.74 1146.22,-207.72"/>
<polygon fill="#333333" stroke="#333333" points="1147.42,-209.02 1150.56,-204.75 1145.44,-206.13 1147.42,-209.02"/>
</g>
<!-- transition_fe5dbbcea5ce7e2988b8c69bcfdfde8904aabc1f -->
<g id="node20" class="node">
<title>transition_fe5dbbcea5ce7e2988b8c69bcfdfde8904aabc1f</title>
<polygon fill="none" stroke="#333333" points="1259.08,-355 1144.08,-355 1144.08,-240 1259.08,-240 1259.08,-355"/>
<text text-anchor="middle" x="1201.58" y="-295.3" font-family="Arial" font-size="9.00">start_yearly_registration</text>
</g>
<!-- place_514fecd50d398278ac3a7a29c818becb81d21d24&#45;&gt;transition_fe5dbbcea5ce7e2988b8c69bcfdfde8904aabc1f -->
<g id="edge17" class="edge">
<title>place_514fecd50d398278ac3a7a29c818becb81d21d24&#45;&gt;transition_fe5dbbcea5ce7e2988b8c69bcfdfde8904aabc1f</title>
<path fill="none" stroke="#333333" d="M1091.51,-279.2C1106.12,-281.65 1123.01,-284.48 1139.07,-287.18"/>
<polygon fill="#333333" stroke="#333333" points="1138.8,-288.91 1144.02,-288.01 1139.38,-285.46 1138.8,-288.91"/>
</g>
<!-- place_e28147c924f33efa3fb8ca4cf1dd01ecaec146ba -->
<g id="node6" class="node">
<title>place_e28147c924f33efa3fb8ca4cf1dd01ecaec146ba</title>
<ellipse fill="none" stroke="#333333" cx="1345.69" cy="-87.5" rx="50.71" ry="50.71"/>
<text text-anchor="middle" x="1345.69" y="-85.3" font-family="Arial" font-size="9.00">yearly_file_pending</text>
</g>
<!-- transition_b1d5781111d84f7b3fe45a0852e59758cd7a87e5 -->
<g id="node22" class="node">
<title>transition_b1d5781111d84f7b3fe45a0852e59758cd7a87e5</title>
<polygon fill="none" stroke="#333333" points="1523.3,-174 1432.3,-174 1432.3,-83 1523.3,-83 1523.3,-174"/>
<text text-anchor="middle" x="1477.8" y="-126.3" font-family="Arial" font-size="9.00">submit_yearly_file</text>
</g>
<!-- place_e28147c924f33efa3fb8ca4cf1dd01ecaec146ba&#45;&gt;transition_b1d5781111d84f7b3fe45a0852e59758cd7a87e5 -->
<g id="edge21" class="edge">
<title>place_e28147c924f33efa3fb8ca4cf1dd01ecaec146ba&#45;&gt;transition_b1d5781111d84f7b3fe45a0852e59758cd7a87e5</title>
<path fill="none" stroke="#333333" d="M1394.4,-102.53C1405.09,-105.9 1416.46,-109.49 1427.22,-112.88"/>
<polygon fill="#333333" stroke="#333333" points="1426.83,-114.59 1432.12,-114.42 1427.88,-111.25 1426.83,-114.59"/>
</g>
<!-- place_dc599f80c21c02fbe746d115a4f16a7654e515ac -->
<g id="node7" class="node">
<title>place_dc599f80c21c02fbe746d115a4f16a7654e515ac</title>
<ellipse fill="none" stroke="#333333" cx="1613" cy="-132.5" rx="53.91" ry="53.91"/>
<text text-anchor="middle" x="1613" y="-130.3" font-family="Arial" font-size="9.00">yearly_file_submitted</text>
</g>
<!-- transition_17ba0791499db908433b80f37c5fbc89b870084b -->
<g id="node23" class="node">
<title>transition_17ba0791499db908433b80f37c5fbc89b870084b</title>
<polygon fill="none" stroke="#333333" points="1796.71,-205.5 1702.71,-205.5 1702.71,-111.5 1796.71,-111.5 1796.71,-205.5"/>
<text text-anchor="middle" x="1749.71" y="-156.3" font-family="Arial" font-size="9.00">receive_yearly_file</text>
</g>
<!-- place_dc599f80c21c02fbe746d115a4f16a7654e515ac&#45;&gt;transition_17ba0791499db908433b80f37c5fbc89b870084b -->
<g id="edge23" class="edge">
<title>place_dc599f80c21c02fbe746d115a4f16a7654e515ac&#45;&gt;transition_17ba0791499db908433b80f37c5fbc89b870084b</title>
<path fill="none" stroke="#333333" d="M1666.08,-142.55C1676.39,-144.54 1687.2,-146.63 1697.48,-148.61"/>
<polygon fill="#333333" stroke="#333333" points="1697.24,-150.35 1702.48,-149.58 1697.9,-146.91 1697.24,-150.35"/>
</g>
<!-- transition_7b52009b64fd0a2a49e6d8a939753077792b0554 -->
<g id="node24" class="node">
<title>transition_7b52009b64fd0a2a49e6d8a939753077792b0554</title>
<polygon fill="none" stroke="#333333" points="1792.71,-93.5 1706.71,-93.5 1706.71,-7.5 1792.71,-7.5 1792.71,-93.5"/>
<text text-anchor="middle" x="1749.71" y="-48.3" font-family="Arial" font-size="9.00">reject_yearly_file</text>
</g>
<!-- place_dc599f80c21c02fbe746d115a4f16a7654e515ac&#45;&gt;transition_7b52009b64fd0a2a49e6d8a939753077792b0554 -->
<g id="edge25" class="edge">
<title>place_dc599f80c21c02fbe746d115a4f16a7654e515ac&#45;&gt;transition_7b52009b64fd0a2a49e6d8a939753077792b0554</title>
<path fill="none" stroke="#333333" d="M1659.23,-104.97C1673.09,-96.53 1688.34,-87.25 1702.28,-78.76"/>
<polygon fill="#333333" stroke="#333333" points="1703.19,-80.26 1706.55,-76.16 1701.37,-77.27 1703.19,-80.26"/>
</g>
<!-- place_8e9e1217b7c38b59df2146b7418edffc16ab284d -->
<g id="node8" class="node">
<title>place_8e9e1217b7c38b59df2146b7418edffc16ab284d</title>
<ellipse fill="none" stroke="#333333" cx="1883.83" cy="-158.5" rx="51.25" ry="51.25"/>
<text text-anchor="middle" x="1883.83" y="-156.3" font-family="Arial" font-size="9.00">yearly_file_received</text>
</g>
<!-- transition_bd307a3ec329e10a2cff8fb87480823da114f8f4 -->
<g id="node25" class="node">
<title>transition_bd307a3ec329e10a2cff8fb87480823da114f8f4</title>
<polygon fill="none" stroke="#333333" points="2077.95,-259 1970.95,-259 1970.95,-152 2077.95,-152 2077.95,-259"/>
<text text-anchor="middle" x="2024.45" y="-203.3" font-family="Arial" font-size="9.00">register_to_federation</text>
</g>
<!-- place_8e9e1217b7c38b59df2146b7418edffc16ab284d&#45;&gt;transition_bd307a3ec329e10a2cff8fb87480823da114f8f4 -->
<g id="edge27" class="edge">
<title>place_8e9e1217b7c38b59df2146b7418edffc16ab284d&#45;&gt;transition_bd307a3ec329e10a2cff8fb87480823da114f8f4</title>
<path fill="none" stroke="#333333" d="M1932.54,-174.67C1943.36,-178.35 1954.97,-182.28 1966.15,-186.07"/>
<polygon fill="#333333" stroke="#333333" points="1965.62,-187.74 1970.91,-187.69 1966.74,-184.42 1965.62,-187.74"/>
</g>
<!-- transition_fa35e192121eabf3dabf9f5ea6abdbcbc107ac3b -->
<g id="node26" class="node">
<title>transition_fa35e192121eabf3dabf9f5ea6abdbcbc107ac3b</title>
<polygon fill="none" stroke="#333333" points="2201.59,-141.5 2129.59,-141.5 2129.59,-69.5 2201.59,-69.5 2201.59,-141.5"/>
<text text-anchor="middle" x="2165.59" y="-103.3" font-family="Arial" font-size="9.00">expire</text>
</g>
<!-- place_8e9e1217b7c38b59df2146b7418edffc16ab284d&#45;&gt;transition_fa35e192121eabf3dabf9f5ea6abdbcbc107ac3b -->
<g id="edge29" class="edge">
<title>place_8e9e1217b7c38b59df2146b7418edffc16ab284d&#45;&gt;transition_fa35e192121eabf3dabf9f5ea6abdbcbc107ac3b</title>
<path fill="none" stroke="#333333" d="M1934.2,-149.15C1988.34,-138.89 2074.19,-122.63 2124.39,-113.12"/>
<polygon fill="#333333" stroke="#333333" points="2124.84,-114.81 2129.43,-112.16 2124.19,-111.37 2124.84,-114.81"/>
</g>
<!-- place_7858fba41f70b3e11bfa29debd9d8bc0a591ec8f -->
<g id="node9" class="node">
<title>place_7858fba41f70b3e11bfa29debd9d8bc0a591ec8f</title>
<ellipse fill="none" stroke="#333333" cx="2165.59" cy="-211.5" rx="51.78" ry="51.78"/>
<text text-anchor="middle" x="2165.59" y="-209.3" font-family="Arial" font-size="9.00">yearly_file_registred</text>
</g>
<!-- transition_f1abd670358e036c31296e66b3b66c382ac00812 -->
<g id="node27" class="node">
<title>transition_f1abd670358e036c31296e66b3b66c382ac00812</title>
<polygon fill="none" stroke="#333333" points="2325.23,-236.5 2253.23,-236.5 2253.23,-164.5 2325.23,-164.5 2325.23,-236.5"/>
<text text-anchor="middle" x="2289.23" y="-198.3" font-family="Arial" font-size="9.00">expire</text>
</g>
<!-- place_7858fba41f70b3e11bfa29debd9d8bc0a591ec8f&#45;&gt;transition_f1abd670358e036c31296e66b3b66c382ac00812 -->
<g id="edge31" class="edge">
<title>place_7858fba41f70b3e11bfa29debd9d8bc0a591ec8f&#45;&gt;transition_f1abd670358e036c31296e66b3b66c382ac00812</title>
<path fill="none" stroke="#333333" d="M2217.12,-206.93C2227.46,-206 2238.21,-205.02 2248.12,-204.13"/>
<polygon fill="#333333" stroke="#333333" points="2248.4,-205.86 2253.23,-203.67 2248.09,-202.37 2248.4,-205.86"/>
</g>
<!-- place_8761d26fb8d6c7853faf7cf13fd3e5471364dc36 -->
<g id="node10" class="node">
<title>place_8761d26fb8d6c7853faf7cf13fd3e5471364dc36</title>
<ellipse fill="none" stroke="#333333" cx="36" cy="-207.5" rx="36" ry="36"/>
<text text-anchor="middle" x="36" y="-205.3" font-family="Arial" font-size="9.00">cancelled</text>
</g>
<!-- place_45a6f9adb1df3a78aafc71391c7d3bfa7680229b -->
<g id="node11" class="node">
<title>place_45a6f9adb1df3a78aafc71391c7d3bfa7680229b</title>
<ellipse fill="none" stroke="#333333" cx="2397.23" cy="-158.5" rx="36" ry="36"/>
<text text-anchor="middle" x="2397.23" y="-156.3" font-family="Arial" font-size="9.00">expired</text>
</g>
<!-- transition_b6589fc6ab0dc82cf12099d1c2d40ab994e8410c&#45;&gt;place_21b3b0a2d1e09a154500d665a6ffa69ba45ba979 -->
<g id="edge2" class="edge">
<title>transition_b6589fc6ab0dc82cf12099d1c2d40ab994e8410c&#45;&gt;place_21b3b0a2d1e09a154500d665a6ffa69ba45ba979</title>
<path fill="none" stroke="#333333" d="M180.18,-182.81C195.27,-191.1 213.06,-200.86 228.97,-209.6"/>
<polygon fill="#333333" stroke="#333333" points="228.18,-211.16 233.4,-212.03 229.86,-208.09 228.18,-211.16"/>
</g>
<!-- transition_356a192b7913b04c54574d18c28d46e6395428ab&#45;&gt;place_d5da4a762fe3f8908e39c162552020c152514e2a -->
<g id="edge4" class="edge">
<title>transition_356a192b7913b04c54574d18c28d46e6395428ab&#45;&gt;place_d5da4a762fe3f8908e39c162552020c152514e2a</title>
<path fill="none" stroke="#333333" d="M448.11,-233.5C457.89,-233.5 468.52,-233.5 478.81,-233.5"/>
<polygon fill="#333333" stroke="#333333" points="478.84,-235.25 483.84,-233.5 478.84,-231.75 478.84,-235.25"/>
</g>
<!-- transition_da4b9237bacccdf19c0760cab7aec4a8359010b0&#45;&gt;place_124f70d67f4f800fdeea7011f8de04c51e8ff839 -->
<g id="edge6" class="edge">
<title>transition_da4b9237bacccdf19c0760cab7aec4a8359010b0&#45;&gt;place_124f70d67f4f800fdeea7011f8de04c51e8ff839</title>
<path fill="none" stroke="#333333" d="M701.39,-173.5C711.16,-173.5 721.69,-173.5 731.81,-173.5"/>
<polygon fill="#333333" stroke="#333333" points="732.06,-175.25 737.06,-173.5 732.06,-171.75 732.06,-175.25"/>
</g>
<!-- transition_77de68daecd823babbb58edb1c8e14d7106e83bb&#45;&gt;place_21b3b0a2d1e09a154500d665a6ffa69ba45ba979 -->
<g id="edge8" class="edge">
<title>transition_77de68daecd823babbb58edb1c8e14d7106e83bb&#45;&gt;place_21b3b0a2d1e09a154500d665a6ffa69ba45ba979</title>
<path fill="none" stroke="#333333" d="M620.43,-311.5C564.08,-311.97 455.01,-308.91 367,-282.5 349.81,-277.34 332.11,-268.87 316.86,-260.41"/>
<polygon fill="#333333" stroke="#333333" points="317.42,-258.71 312.2,-257.78 315.7,-261.76 317.42,-258.71"/>
</g>
<!-- transition_1b6453892473a467d07372d45eb05abc2031647a&#45;&gt;place_514fecd50d398278ac3a7a29c818becb81d21d24 -->
<g id="edge10" class="edge">
<title>transition_1b6453892473a467d07372d45eb05abc2031647a&#45;&gt;place_514fecd50d398278ac3a7a29c818becb81d21d24</title>
<path fill="none" stroke="#333333" d="M829.19,-306.34C864.28,-308.4 914.07,-309.3 957.08,-302.5 973.86,-299.85 991.73,-294.65 1007.25,-289.31"/>
<polygon fill="#333333" stroke="#333333" points="1007.85,-290.96 1011.99,-287.65 1006.69,-287.65 1007.85,-290.96"/>
</g>
<!-- transition_ac3478d69a3c81fa62e60f5c3696165a4e5e6ac4&#45;&gt;place_514fecd50d398278ac3a7a29c818becb81d21d24 -->
<g id="edge12" class="edge">
<title>transition_ac3478d69a3c81fa62e60f5c3696165a4e5e6ac4&#45;&gt;place_514fecd50d398278ac3a7a29c818becb81d21d24</title>
<path fill="none" stroke="#333333" d="M957.11,-255.69C972.3,-258.45 989.27,-261.53 1004.47,-264.3"/>
<polygon fill="#333333" stroke="#333333" points="1004.33,-266.05 1009.56,-265.22 1004.95,-262.61 1004.33,-266.05"/>
</g>
<!-- transition_c1dfd96eea8cc2b62785275bca38ac261256e278&#45;&gt;place_124f70d67f4f800fdeea7011f8de04c51e8ff839 -->
<g id="edge14" class="edge">
<title>transition_c1dfd96eea8cc2b62785275bca38ac261256e278&#45;&gt;place_124f70d67f4f800fdeea7011f8de04c51e8ff839</title>
<path fill="none" stroke="#333333" d="M1150.32,-170.86C1070.16,-171.44 914.29,-172.56 834.21,-173.14"/>
<polygon fill="#333333" stroke="#333333" points="834.04,-171.39 829.05,-173.18 834.06,-174.89 834.04,-171.39"/>
</g>
<!-- transition_902ba3cda1883801594b6e1b452790cc53948fda&#45;&gt;place_e28147c924f33efa3fb8ca4cf1dd01ecaec146ba -->
<g id="edge16" class="edge">
<title>transition_902ba3cda1883801594b6e1b452790cc53948fda&#45;&gt;place_e28147c924f33efa3fb8ca4cf1dd01ecaec146ba</title>
<path fill="none" stroke="#333333" d="M1108.1,-87.5C1160.37,-87.5 1237.59,-87.5 1289.45,-87.5"/>
<polygon fill="#333333" stroke="#333333" points="1289.7,-89.25 1294.7,-87.5 1289.7,-85.75 1289.7,-89.25"/>
</g>
<!-- transition_fe5dbbcea5ce7e2988b8c69bcfdfde8904aabc1f&#45;&gt;place_e28147c924f33efa3fb8ca4cf1dd01ecaec146ba -->
<g id="edge18" class="edge">
<title>transition_fe5dbbcea5ce7e2988b8c69bcfdfde8904aabc1f&#45;&gt;place_e28147c924f33efa3fb8ca4cf1dd01ecaec146ba</title>
<path fill="none" stroke="#333333" d="M1252.17,-239.85C1254.56,-236.73 1256.87,-233.6 1259.08,-230.5 1280.63,-200.32 1302.05,-164.53 1318.08,-136.3"/>
<polygon fill="#333333" stroke="#333333" points="1319.67,-137.05 1320.61,-131.83 1316.62,-135.32 1319.67,-137.05"/>
</g>
<!-- transition_0ade7c2cf97f75d009975f4d720d1fa6c19f4897&#45;&gt;place_e28147c924f33efa3fb8ca4cf1dd01ecaec146ba -->
<g id="edge20" class="edge">
<title>transition_0ade7c2cf97f75d009975f4d720d1fa6c19f4897&#45;&gt;place_e28147c924f33efa3fb8ca4cf1dd01ecaec146ba</title>
<path fill="none" stroke="#333333" d="M331.15,-37.84C382.73,-21.7 461.32,-1.5 531.54,-1.5 531.54,-1.5 531.54,-1.5 1051.58,-1.5 1140.05,-1.5 1237.67,-38.01 1294.96,-63.46"/>
<polygon fill="#333333" stroke="#333333" points="1294.42,-65.13 1299.7,-65.58 1295.85,-61.94 1294.42,-65.13"/>
</g>
<!-- transition_b1d5781111d84f7b3fe45a0852e59758cd7a87e5&#45;&gt;place_dc599f80c21c02fbe746d115a4f16a7654e515ac -->
<g id="edge22" class="edge">
<title>transition_b1d5781111d84f7b3fe45a0852e59758cd7a87e5&#45;&gt;place_dc599f80c21c02fbe746d115a4f16a7654e515ac</title>
<path fill="none" stroke="#333333" d="M1523.52,-129.84C1533.18,-130.13 1543.52,-130.44 1553.61,-130.75"/>
<polygon fill="#333333" stroke="#333333" points="1553.81,-132.5 1558.86,-130.9 1553.91,-129 1553.81,-132.5"/>
</g>
<!-- transition_17ba0791499db908433b80f37c5fbc89b870084b&#45;&gt;place_8e9e1217b7c38b59df2146b7418edffc16ab284d -->
<g id="edge24" class="edge">
<title>transition_17ba0791499db908433b80f37c5fbc89b870084b&#45;&gt;place_8e9e1217b7c38b59df2146b7418edffc16ab284d</title>
<path fill="none" stroke="#333333" d="M1796.92,-158.5C1806.68,-158.5 1817.07,-158.5 1827.14,-158.5"/>
<polygon fill="#333333" stroke="#333333" points="1827.37,-160.25 1832.37,-158.5 1827.37,-156.75 1827.37,-160.25"/>
</g>
<!-- transition_7b52009b64fd0a2a49e6d8a939753077792b0554&#45;&gt;place_e28147c924f33efa3fb8ca4cf1dd01ecaec146ba -->
<g id="edge26" class="edge">
<title>transition_7b52009b64fd0a2a49e6d8a939753077792b0554&#45;&gt;place_e28147c924f33efa3fb8ca4cf1dd01ecaec146ba</title>
<path fill="none" stroke="#333333" d="M1706.62,-52.36C1645.89,-55.31 1530.21,-61.96 1432.3,-73.5 1422.14,-74.7 1411.35,-76.24 1400.98,-77.87"/>
<polygon fill="#333333" stroke="#333333" points="1400.59,-76.16 1395.93,-78.67 1401.14,-79.62 1400.59,-76.16"/>
</g>
<!-- transition_bd307a3ec329e10a2cff8fb87480823da114f8f4&#45;&gt;place_7858fba41f70b3e11bfa29debd9d8bc0a591ec8f -->
<g id="edge28" class="edge">
<title>transition_bd307a3ec329e10a2cff8fb87480823da114f8f4&#45;&gt;place_7858fba41f70b3e11bfa29debd9d8bc0a591ec8f</title>
<path fill="none" stroke="#333333" d="M2078.06,-207.77C2088.02,-208.2 2098.47,-208.65 2108.54,-209.08"/>
<polygon fill="#333333" stroke="#333333" points="2108.69,-210.84 2113.76,-209.31 2108.84,-207.34 2108.69,-210.84"/>
</g>
<!-- transition_fa35e192121eabf3dabf9f5ea6abdbcbc107ac3b&#45;&gt;place_45a6f9adb1df3a78aafc71391c7d3bfa7680229b -->
<g id="edge30" class="edge">
<title>transition_fa35e192121eabf3dabf9f5ea6abdbcbc107ac3b&#45;&gt;place_45a6f9adb1df3a78aafc71391c7d3bfa7680229b</title>
<path fill="none" stroke="#333333" d="M2201.72,-113.61C2243.58,-123.27 2313.32,-139.36 2356.94,-149.43"/>
<polygon fill="#333333" stroke="#333333" points="2356.6,-151.15 2361.86,-150.57 2357.38,-147.74 2356.6,-151.15"/>
</g>
<!-- transition_f1abd670358e036c31296e66b3b66c382ac00812&#45;&gt;place_45a6f9adb1df3a78aafc71391c7d3bfa7680229b -->
<g id="edge32" class="edge">
<title>transition_f1abd670358e036c31296e66b3b66c382ac00812&#45;&gt;place_45a6f9adb1df3a78aafc71391c7d3bfa7680229b</title>
<path fill="none" stroke="#333333" d="M2325.24,-186.63C2335.9,-182.4 2347.68,-177.74 2358.52,-173.44"/>
<polygon fill="#333333" stroke="#333333" points="2359.42,-174.97 2363.42,-171.5 2358.13,-171.72 2359.42,-174.97"/>
</g>
</g>
</svg>
